<?xml version="1.0" encoding="utf-8"?>
<!-- Uploaded to: SVG Repo, www.svgrepo.com, Generator: SVG Repo Mixer Tools -->
<svg fill="#000000" version="1.1" id="Layer_1" xmlns="http://www.w3.org/2000/svg" xmlns:xlink="http://www.w3.org/1999/xlink" 
	 width="800px" height="800px" viewBox="0 0 256 160" enable-background="new 0 0 256 160" xml:space="preserve">
<path d="M64.54,111.394c-12.78,0-23.11,10.34-23.11,23.12c0,12.77,10.33,23.11,23.11,23.11c12.77,0,23.11-10.34,23.11-23.11
	C87.65,121.734,77.31,111.394,64.54,111.394z M64.54,143.364c-4.85,0-8.85-4-8.85-8.85c0-4.86,4-8.86,8.85-8.86
	c4.85,0,8.85,4,8.85,8.86C73.39,139.364,69.39,143.364,64.54,143.364z M210.04,110.414c-12.77,0-23.11,10.34-23.11,23.11
	c0,12.78,10.34,23.12,23.11,23.12c12.78,0,23.12-10.34,23.12-23.12C233.16,120.754,222.82,110.414,210.04,110.414z M210.04,142.384
	c-4.85,0-8.85-4.01-8.85-8.86c0-4.85,4-8.85,8.85-8.85c4.86,0,8.86,4,8.86,8.85C218.9,138.374,214.9,142.384,210.04,142.384z
	 M2,1.934v119.44c0,4.49,3.52,8.56,8,8.56h22c0.92,0,1.83-1.16,2-2c2.52-14.45,15.33-24.44,30.54-24.44
	c15.21,0,27.82,10.03,30.34,24.49c0.17,0.92,1.2,1.95,2.12,1.95h33v-128H2z M63.87,21.524l2.18,9.55c0.5-5.57,3.95-8.26,12.26-11.07
	c0.99,6.99,0.13,10.62-4.41,13.94c-1.9,1.34-9.37,6.03-9.37,6.03l-3.98-16.1L63.87,21.524z M88.25,67.954
	c-4.28,7.2-7.05,11.46-8.31,12.7l-0.31,0.33c-2.08,1.98-4.38,3.02-6.89,3.02c-3.45,0-6.19-1.47-8.16-4.01h-0.11
	c-2,2.54-4.68,4.01-8.13,4.01c-2.51,0-4.79-1.07-6.9-3.05l-0.3-0.3c-1.24-1.24-4.03-5.47-8.31-12.7c-2.41-4.71-4.08-8.57-4.08-14.42
	c0-4.49,1.59-8.34,4.76-11.53c3.19-3.2,7.05-4.77,11.53-4.77c4.52,0,8.27,1.45,11.41,4.74h0.1c3.14-3.29,6.95-4.74,11.46-4.74
	s8.34,1.57,11.53,4.77c3.19,3.19,4.79,7.02,4.79,11.53C92.33,59.384,90.66,63.244,88.25,67.954z M252,112.934h-5v-22
	c0-7.39-5.52-13-13-13h-24c-0.5,0-1.1-0.26-1.44-0.6l-37.4-36.41c-1.68-1.68-3.72-2.9-6.16-2.99h-27v92h40c0.92,0,1.83-1.16,2-2
	c2.52-14.45,14.83-25.42,30.04-25.42c15.22,0,27.82,11.01,30.34,25.47c0.17,0.92,1.7,1.95,2.62,1.95h2c4.79,0,9-4.31,9-9.01v-6.22
	C254,113.774,253.01,112.934,252,112.934z M191,77.934h-41c-1.01,0-2-0.99-2-2v-25.57c0-1.01,0.99-2.43,2-2.43h13
	c0.5,0,1.52,0.56,1.94,0.89L192,74.934C193.01,76.194,192.6,77.934,191,77.934z"/>
</svg>